<svg width="37" height="37" viewBox="0 0 37 37" fill="none" xmlns="http://www.w3.org/2000/svg">
<path d="M10.8967 0.0917969H26.0688C31.8487 0.0917969 36.5448 4.7718 36.5448 10.5318V25.6518C36.5448 28.4207 35.4411 31.0761 33.4764 33.034C31.5118 34.9919 28.8472 36.0918 26.0688 36.0918H10.8967C5.11679 36.0918 0.420654 31.4118 0.420654 25.6518V10.5318C0.420654 7.76294 1.52437 5.10748 3.489 3.1496C5.45364 1.19172 8.11825 0.0917969 10.8967 0.0917969ZM10.5354 3.6918C8.81088 3.6918 7.15699 4.37451 5.93756 5.58975C4.71813 6.80498 4.03307 8.45319 4.03307 10.1718V26.0118C4.03307 29.5938 6.94106 32.4918 10.5354 32.4918H26.43C28.1546 32.4918 29.8085 31.8091 31.0279 30.5938C32.2473 29.3786 32.9324 27.7304 32.9324 26.0118V10.1718C32.9324 6.5898 30.0244 3.6918 26.43 3.6918H10.5354ZM27.9653 6.3918C28.5641 6.3918 29.1384 6.62885 29.5618 7.05081C29.9852 7.47276 30.2231 8.04506 30.2231 8.6418C30.2231 9.23853 29.9852 9.81083 29.5618 10.2328C29.1384 10.6547 28.5641 10.8918 27.9653 10.8918C27.3665 10.8918 26.7922 10.6547 26.3688 10.2328C25.9454 9.81083 25.7076 9.23853 25.7076 8.6418C25.7076 8.04506 25.9454 7.47276 26.3688 7.05081C26.7922 6.62885 27.3665 6.3918 27.9653 6.3918ZM18.4827 9.0918C20.8779 9.0918 23.175 10.04 24.8686 11.7278C26.5623 13.4157 27.5138 15.7048 27.5138 18.0918C27.5138 20.4787 26.5623 22.7679 24.8686 24.4558C23.175 26.1436 20.8779 27.0918 18.4827 27.0918C16.0875 27.0918 13.7905 26.1436 12.0968 24.4558C10.4032 22.7679 9.45169 20.4787 9.45169 18.0918C9.45169 15.7048 10.4032 13.4157 12.0968 11.7278C13.7905 10.04 16.0875 9.0918 18.4827 9.0918ZM18.4827 12.6918C17.0456 12.6918 15.6674 13.2607 14.6512 14.2734C13.635 15.2861 13.0641 16.6596 13.0641 18.0918C13.0641 19.524 13.635 20.8975 14.6512 21.9102C15.6674 22.9229 17.0456 23.4918 18.4827 23.4918C19.9198 23.4918 21.2981 22.9229 22.3143 21.9102C23.3305 20.8975 23.9013 19.524 23.9013 18.0918C23.9013 16.6596 23.3305 15.2861 22.3143 14.2734C21.2981 13.2607 19.9198 12.6918 18.4827 12.6918Z" fill="white"/>
</svg>
