<svg width="37" height="36" viewBox="0 0 37 36" fill="none" xmlns="http://www.w3.org/2000/svg">
<path d="M32.1103 0C33.1749 0 34.1958 0.421427 34.9485 1.17157C35.7013 1.92172 36.1241 2.93913 36.1241 4V32C36.1241 33.0609 35.7013 34.0783 34.9485 34.8284C34.1958 35.5786 33.1749 36 32.1103 36H4.01379C2.94927 36 1.92834 35.5786 1.17561 34.8284C0.42288 34.0783 0 33.0609 0 32V4C0 2.93913 0.42288 1.92172 1.17561 1.17157C1.92834 0.421427 2.94927 0 4.01379 0H32.1103ZM31.1069 31V20.4C31.1069 18.6708 30.4176 17.0124 29.1906 15.7897C27.9637 14.5669 26.2996 13.88 24.5644 13.88C22.8586 13.88 20.8717 14.92 19.9084 16.48V14.26H14.3092V31H19.9084V21.14C19.9084 19.6 21.1527 18.34 22.698 18.34C23.4432 18.34 24.1578 18.635 24.6847 19.1601C25.2116 19.6852 25.5077 20.3974 25.5077 21.14V31H31.1069ZM7.78676 11.12C8.68096 11.12 9.53854 10.766 10.1708 10.1359C10.8031 9.50576 11.1583 8.65113 11.1583 7.76C11.1583 5.9 9.65317 4.38 7.78676 4.38C6.88724 4.38 6.02455 4.73611 5.3885 5.36998C4.75244 6.00385 4.3951 6.86357 4.3951 7.76C4.3951 9.62 5.92034 11.12 7.78676 11.12ZM10.5763 31V14.26H5.01724V31H10.5763Z" fill="white"/>
</svg>
