<svg width="37" height="27" viewBox="0 0 37 27" fill="none" xmlns="http://www.w3.org/2000/svg">
<path d="M14.66 19.3004L24.0342 13.5378L14.66 7.77523V19.3004ZM35.5397 4.26006C35.7745 5.16286 35.9371 6.373 36.0455 7.90968C36.1719 9.44637 36.2261 10.7718 36.2261 11.9243L36.3345 13.5378C36.3345 17.7445 36.0455 20.8371 35.5397 22.8155C35.0882 24.5443 34.0406 25.6584 32.415 26.1386C31.5661 26.3883 30.0127 26.5612 27.6285 26.6765C25.2805 26.8109 23.1311 26.8685 21.1443 26.8685L18.2724 26.9838C10.7044 26.9838 5.99019 26.6765 4.1298 26.1386C2.50421 25.6584 1.45661 24.5443 1.00506 22.8155C0.770251 21.9127 0.607693 20.7026 0.49932 19.1659C0.372886 17.6292 0.318699 16.3038 0.318699 15.1513L0.210327 13.5378C0.210327 9.33112 0.49932 6.23854 1.00506 4.26006C1.45661 2.53129 2.50421 1.41719 4.1298 0.936974C4.97871 0.687263 6.53205 0.514385 8.91624 0.399134C11.2643 0.264674 13.4137 0.207048 15.4005 0.207048L18.2724 0.0917969C25.8404 0.0917969 30.5546 0.399134 32.415 0.936974C34.0406 1.41719 35.0882 2.53129 35.5397 4.26006Z" fill="white"/>
</svg>
