<svg width="37" height="37" viewBox="0 0 37 37" fill="none" xmlns="http://www.w3.org/2000/svg">
<path d="M4.64831 0.0917969H32.7449C33.8094 0.0917969 34.8303 0.513224 35.583 1.26337C36.3358 2.01351 36.7587 3.03093 36.7587 4.0918V32.0918C36.7587 33.1527 36.3358 34.1701 35.583 34.9202C34.8303 35.6704 33.8094 36.0918 32.7449 36.0918H4.64831C3.58379 36.0918 2.56287 35.6704 1.81013 34.9202C1.0574 34.1701 0.634521 33.1527 0.634521 32.0918V4.0918C0.634521 3.03093 1.0574 2.01351 1.81013 1.26337C2.56287 0.513224 3.58379 0.0917969 4.64831 0.0917969ZM30.738 4.0918H25.7207C23.8578 4.0918 22.0712 4.8293 20.7539 6.14205C19.4366 7.4548 18.6966 9.23528 18.6966 11.0918V16.0918H14.6828V22.0918H18.6966V36.0918H24.7173V22.0918H30.738V16.0918H24.7173V12.0918C24.7173 11.5614 24.9287 11.0527 25.3051 10.6776C25.6815 10.3025 26.1919 10.0918 26.7242 10.0918H30.738V4.0918Z" fill="white"/>
</svg>
