<svg width="236" height="40" viewBox="0 0 236 40" fill="none" xmlns="http://www.w3.org/2000/svg">
<path fill-rule="evenodd" clip-rule="evenodd" d="M27.177 26.3367C27.177 29.9011 25.7782 33.2674 23.1804 35.8417C20.5826 38.4159 17.1855 39.8021 13.5885 39.8021C9.99154 39.8021 6.59442 38.4159 3.99662 35.8417C1.39882 33.2674 0 29.9011 0 26.3367V26.1386H6.99408V26.3367C6.99408 28.1189 7.59357 29.703 8.99239 30.8911C10.1914 32.0793 11.9899 32.8714 13.5885 32.8714C15.387 32.8714 16.9856 32.2773 18.1846 30.8911C19.3836 29.703 20.1829 27.9209 20.1829 26.3367C20.1829 22.5743 17.7849 20.5941 14.3878 19.802L11.3904 19.0099C8.79256 18.2178 6.79425 17.6237 4.99577 15.2475C3.79679 13.6633 2.99746 11.6832 2.99746 9.50496C2.99746 6.93069 3.99662 4.5544 5.79509 2.77221C7.59357 0.99003 9.99154 0 12.5893 0H22.1812V6.93072H12.5893C11.9899 6.93072 11.1905 7.12867 10.7909 7.72273C10.3912 8.11877 9.99154 8.9109 9.99154 9.50496C9.99154 11.4852 11.79 11.8811 13.3887 12.2772L15.7866 12.8713C22.5809 14.8515 27.177 19.0099 27.177 26.3367Z" fill="white"/>
<path fill-rule="evenodd" clip-rule="evenodd" d="M206.225 25.3466C206.225 23.3664 205.426 21.3861 204.027 20.198C202.628 18.8118 200.83 18.0198 198.632 18.0198C196.633 18.0198 194.635 18.8118 193.236 20.198C191.837 21.5841 191.038 23.3663 191.038 25.5446C191.038 27.5248 191.837 29.505 193.236 30.8911C194.635 32.2773 196.434 33.0693 198.632 33.0693C200.63 33.0693 202.628 32.2773 204.027 30.8911C205.426 29.307 206.225 27.3268 206.225 25.3466ZM206.225 13.8614V10.8911H213.219C213.219 20.3961 213.219 30.0991 213.219 39.6041H206.225V36.6338C203.228 40.0001 197.633 40.1982 193.636 38.614C191.638 37.8219 189.839 36.8318 188.241 35.2476C185.643 32.6733 184.044 29.1089 184.044 25.1485C184.044 21.1881 185.643 17.6238 188.241 15.0495C189.839 13.4653 191.837 12.2772 194.036 11.4852C198.032 10.4951 203.228 10.8911 206.225 13.8614Z" fill="white"/>
<path fill-rule="evenodd" clip-rule="evenodd" d="M99.1162 25.3466C99.1162 23.3664 98.3168 21.3861 96.918 20.198C95.5192 18.8118 93.7207 18.0198 91.5226 18.0198C89.5243 18.0198 87.526 18.8118 86.1272 20.198C84.7283 21.5841 83.929 23.3663 83.929 25.5446C83.929 27.5248 84.7283 29.505 86.1272 30.8911C87.526 32.2773 89.3244 33.0693 91.5226 33.0693C93.5209 33.0693 95.5192 32.2773 96.918 30.8911C98.3168 29.307 99.1162 27.3268 99.1162 25.3466ZM99.1162 13.8614V10.8911H106.11C106.11 20.3961 106.11 30.0991 106.11 39.6041H99.1162V36.6338C96.1187 40.0001 90.5234 40.1982 86.5268 38.614C84.5285 37.8219 82.73 36.8318 81.1314 35.2476C78.5336 32.6733 76.9349 29.1089 76.9349 25.1485C76.9349 21.1881 78.5336 17.6238 81.1314 15.0495C82.73 13.4653 84.7283 12.2772 86.9265 11.4852C91.1229 10.4951 96.3185 10.8911 99.1162 13.8614Z" fill="white"/>
<path fill-rule="evenodd" clip-rule="evenodd" d="M181.046 32.6733C179.648 34.8515 177.849 36.6336 175.651 38.0198C173.453 39.2079 171.055 40 168.457 40C164.46 40 160.863 38.4159 158.266 35.8416C155.668 33.2673 154.069 29.703 154.069 25.7426C154.069 21.7822 155.668 18.2177 158.266 15.6435C160.863 13.0692 164.46 11.4851 168.457 11.4851C171.055 11.4851 173.453 12.0792 175.651 13.4653C177.849 14.6534 179.648 16.4356 181.046 18.6138L175.051 21.9802C174.452 20.792 173.453 19.8019 172.254 19.2078C171.055 18.6138 169.856 18.2177 168.457 18.2177C166.459 18.2177 164.46 19.0099 163.062 20.396C161.663 21.7822 160.863 23.5644 160.863 25.7426C160.863 27.7228 161.663 29.7029 163.062 31.0891C164.46 32.4752 166.259 33.2674 168.457 33.2674C169.856 33.2674 171.055 32.8713 172.254 32.2773C173.453 31.6832 174.452 30.693 175.051 29.5049L181.046 32.6733Z" fill="white"/>
<path fill-rule="evenodd" clip-rule="evenodd" d="M111.505 20.9901V39.8021H118.5V20.9901C118.5 20.1981 118.899 19.406 119.499 18.812C120.098 18.2179 120.898 17.8219 121.697 17.8219H128.491V11.0891H121.697C118.899 11.0891 116.301 12.2772 114.503 14.0594C112.704 15.8416 111.505 18.4159 111.505 20.9901Z" fill="white"/>
<path fill-rule="evenodd" clip-rule="evenodd" d="M31.973 20.9901V39.8021H38.9671V21.3862C38.9671 20.3961 38.9671 19.6039 39.9663 18.6138C40.5658 18.0198 41.3651 17.6237 42.1644 17.6237H45.7614C46.5607 17.6237 47.36 18.0198 47.9595 18.6138C48.559 19.2079 48.9586 20.0001 48.9586 20.7921V21.3862V39.6041H55.9527V21.5842V20.7921C55.9527 20.0001 56.3524 19.2079 56.9519 18.6138C57.5514 18.0198 58.3507 17.6237 59.15 17.6237H62.747C63.5463 17.6237 64.3456 18.0198 64.9451 18.6138C65.5446 19.2079 65.9443 20.0001 65.9443 20.7921V39.6041H72.9384V21.7822C72.9384 20.3961 72.9384 19.208 72.5387 17.8218C72.139 16.4357 71.1399 15.0496 70.1407 13.8614C68.9417 12.6733 67.3431 11.6831 65.5446 11.2871C64.7453 11.089 63.946 11.0891 63.1466 10.8911H59.7495C58.7504 10.8911 57.951 10.891 56.9519 11.2871C55.5531 11.6831 54.1543 12.4753 52.9553 13.4654C51.7563 12.4753 50.1576 11.6831 48.559 11.2871C47.7597 11.089 47.1602 11.0891 46.3608 11.0891H42.7639C41.9646 11.0891 41.1652 11.089 40.5658 11.2871C38.7673 11.6831 36.9688 12.6733 35.7698 14.0594C32.9722 15.8416 31.973 18.4158 31.973 20.9901Z" fill="white"/>
<path fill-rule="evenodd" clip-rule="evenodd" d="M132.888 3.96047H139.882V11.0892H149.274V17.8219H139.882V29.7031C139.882 30.4952 140.281 31.2873 140.881 31.8813C141.48 32.4754 142.28 32.8714 143.079 32.8714H150.073V39.8021H143.079C140.281 39.8021 137.684 38.614 135.885 36.8318C134.087 35.0496 132.888 32.4754 132.888 29.7031V3.96047Z" fill="white"/>
<path fill-rule="evenodd" clip-rule="evenodd" d="M218.815 3.96047H225.809V11.0892H235.201V17.8219H225.809V29.7031C225.809 30.4952 226.209 31.2873 226.808 31.8813C227.408 32.4754 228.207 32.8714 229.006 32.8714H236V39.8021H229.006C226.209 39.8021 223.611 38.614 221.812 36.8318C220.014 35.0496 218.815 32.4754 218.815 29.7031V3.96047Z" fill="white"/>
</svg>
